<?xml version="1.0" encoding="utf-8"?>
<!-- Generator: Adobe Illustrator 25.4.1, SVG Export Plug-In . SVG Version: 6.00 Build 0)  -->
<svg version="1.1" id="Layer_1" xmlns="http://www.w3.org/2000/svg" xmlns:xlink="http://www.w3.org/1999/xlink" x="0px" y="0px"
	 viewBox="0 0 2228.86963 752.20056" style="enable-background:new 0 0 2228.86963 752.20056;" xml:space="preserve">
<style type="text/css">
	.st0{fill:#FC101C;}
</style>
<g>
	<g>
		<path class="st0" d="M-1864.79236,13.00773c108.96753,0,217.04712,0,325.85828,0c0,24.69849,0,48.92607,0,73.95835
			c-77.93542,0-155.49158,0-234.10437,0c0,38.88063,0,76.99095,0,116.39836c66.17529,0,132.9657,0,200.64087,0
			c0,26.42409,0,51.57962,0,78.0394c-66.67761,0-133.46753,0-200.97241,0c0,43.09262,0,84.89526,0,127.50137
			c77.95618,0,155.51245,0,234.11743,0c0,24.99335,0,49.23206,0,74.44913c-107.83301,0-216.24121,0-325.53979,0
			C-1864.79236,327.17413-1864.79236,170.66585-1864.79236,13.00773z"/>
		<path class="st0" d="M-1443.84351,13.00444c31.2196,0,60.66797,0,90.12866,0c2.69263,5.17174,1.37976,10.31779,1.38428,15.23105
			c0.09338,102.66611-0.45337,205.33623,0.31628,307.99664c0.32812,43.74719,33.50635,82.5943,81.57666,81.34689
			c16.70508-0.43347,33.14929,1.24469,50.10278-4.48145c32.36609-10.93185,46.81396-34.43497,54.09998-65.20062
			c3.22559-13.62057,2.66431-27.33719,2.66992-41.07397c0.03845-92.49207,0.01978-184.98413,0.01978-277.4762
			c0-5.03359,0-10.06717,0-15.9499c29.5188,0,58.37207,0,87.50146,0c2.63196,4.62658,1.22705,9.79196,1.23206,14.69064
			c0.10034,98.50396,0.22742,197.00836,0.01807,295.51196c-0.12598,59.32025-23.28784,107.93243-72.09277,141.92447
			c-22.8916,15.94366-49.91138,23.76367-78.20581,27.49304c-28.98779,3.82077-57.34009,2.64969-85.72913-3.15057
			c-49.88586-10.19229-87.80713-37.09995-112.90527-81.55353c-14.62512-25.90405-20.02173-54.21082-20.0636-83.59891
			c-0.14038-98.50378-0.05334-197.0079-0.05334-295.51193C-1443.84351,24.18624-1443.84351,19.17041-1443.84351,13.00444z"/>
		<path class="st0" d="M-2229.05688,483.23114c0-156.94193,0-312.79434,0-469.67279c29.93359,0,59.7207,0,90.80542,0
			c0,131.03099,0,262.57056,0,395.39758c67.13379,0,133.00012,0,199.63525,0c0,25.50964,0,49.73856,0,74.27521
			C-2035.57007,483.23114-2132.27368,483.23114-2229.05688,483.23114z"/>
		<path class="st0" d="M-699.3877,13.23146c35.10345,0,69.5575,0,106.09503,0
			c-59.55267,74.14342-117.94757,146.84517-176.13477,219.28839c62.23773,83.92516,123.89185,167.06325,186.53137,251.53001
			c-36.08655,0-69.75061,0-104.18329,0c-60.19751-83.36365-120.69092-167.13721-181.78961-251.74875
			C-812.83447,159.87166-756.3208,86.82266-699.3877,13.23146z"/>
		<path class="st0" d="M-960.46539,483.59702c0-157.43768,0-313.52954,0-470.34247c29.31677,0,58.15308,0,87.65869,0
			c0,156.78331,0,313.20074,0,470.34247C-901.94678,483.59702-930.78302,483.59702-960.46539,483.59702z"/>
		<rect x="-2734.7876" y="408.14413" class="st0" width="335.99045" height="75.08701"/>
		<path class="st0" d="M-2715.46045,14.27175c-36.34717,87.83219-18.83545,192.69978,52.56396,264.0993
			c71.39941,71.39944,176.26709,88.91141,264.09937,52.56418L-2715.46045,14.27175z"/>
		<polygon class="st0" points="-2398.78809,109.46442 -2436.92773,109.46442 -2436.92773,51.67731 -2494.71582,51.67731 
			-2494.71582,13.53668 -2398.78809,13.53668 		"/>
	</g>
	
		<text transform="matrix(1 0 0 1 -2740.66089 676.68817)" class="st0" style="font-family:'Inter-Regular'; font-size:120px; letter-spacing:28;">TELEPORT &amp; DATA CENTRE</text>
</g>
<g>
	
		<text transform="matrix(1 0 0 1 -2736.18628 1840.0481)" class="st0" style="font-family:'Inter-Regular'; font-size:120px; letter-spacing:222;">TELEPORT</text>
	<g>
		<path class="st0" d="M-1860.31775,1175.9425c108.96741,0,217.047,0,325.85815,0c0,24.69849,0,48.92603,0,73.95837
			c-77.9353,0-155.49146,0-234.10437,0c0,38.88062,0,76.99097,0,116.39832c66.17542,0,132.9657,0,200.64099,0
			c0,26.42407,0,51.57959,0,78.03943c-66.67761,0-133.46765,0-200.97241,0c0,43.09265,0,84.89526,0,127.50134
			c77.95618,0,155.51245,0,234.11743,0c0,24.99341,0,49.23206,0,74.4491c-107.83301,0-216.24121,0-325.53979,0
			C-1860.31775,1490.10889-1860.31775,1333.60059-1860.31775,1175.9425z"/>
		<path class="st0" d="M-1439.3689,1175.93921c31.21948,0,60.66797,0,90.12854,0c2.69275,5.17175,1.37988,10.31775,1.3844,15.23108
			c0.09326,102.66614-0.45337,205.33618,0.31628,307.99658c0.32812,43.74719,33.50635,82.59436,81.57666,81.34692
			c16.70508-0.43347,33.14929,1.24463,50.10266-4.48145c32.36609-10.93188,46.81396-34.43494,54.1001-65.20056
			c3.22559-13.62061,2.66418-27.33728,2.66992-41.07397c0.03845-92.49219,0.01978-184.98413,0.01978-277.4762
			c0-5.03369,0-10.06726,0-15.94995c29.51868,0,58.37207,0,87.50146,0c2.63184,4.62659,1.22705,9.79199,1.23193,14.69067
			c0.10046,98.50391,0.22754,197.0083,0.01819,295.51196c-0.1261,59.32019-23.28784,107.93237-72.09277,141.92444
			c-22.8916,15.94373-49.9115,23.76367-78.20581,27.49304c-28.98779,3.8208-57.34009,2.64966-85.72913-3.15051
			c-49.88586-10.19238-87.80713-37.09998-112.90527-81.55359c-14.62512-25.90405-20.02185-54.21082-20.0636-83.59888
			c-0.14038-98.50378-0.05334-197.00793-0.05334-295.51196C-1439.3689,1187.12097-1439.3689,1182.10522-1439.3689,1175.93921z"/>
		<path class="st0" d="M-2224.58228,1646.16589c0-156.94189,0-312.79431,0-469.67273c29.93359,0,59.7207,0,90.80542,0
			c0,131.03088,0,262.57056,0,395.39758c67.13379,0,133.00012,0,199.63525,0c0,25.50964,0,49.73853,0,74.27515
			C-2031.09546,1646.16589-2127.79907,1646.16589-2224.58228,1646.16589z"/>
		<path class="st0" d="M-694.91309,1176.16626c35.10345,0,69.5575,0,106.09497,0
			c-59.55261,74.14343-117.94751,146.84521-176.13477,219.28833c62.23779,83.92517,123.89185,167.06323,186.53143,251.53003
			c-36.08661,0-69.75061,0-104.18329,0c-60.19751-83.36365-120.69098-167.13721-181.78961-251.74878
			C-808.35986,1322.8064-751.84619,1249.75745-694.91309,1176.16626z"/>
		<path class="st0" d="M-955.99084,1646.53186c0-157.43774,0-313.52966,0-470.34253c29.31677,0,58.15314,0,87.65875,0
			c0,156.78333,0,313.20068,0,470.34253C-897.47217,1646.53186-926.30841,1646.53186-955.99084,1646.53186z"/>
		<rect x="-2730.31299" y="1571.07898" class="st0" width="335.99045" height="75.08701"/>
		<path class="st0" d="M-2710.98584,1177.20654c-36.34717,87.83215-18.83545,192.69971,52.56396,264.09937
			c71.39941,71.39941,176.26709,88.91138,264.09937,52.56409L-2710.98584,1177.20654z"/>
		<polygon class="st0" points="-2394.31348,1272.39917 -2432.45312,1272.39917 -2432.45312,1214.61206 -2490.24121,1214.61206 
			-2490.24121,1176.47144 -2394.31348,1176.47144 		"/>
	</g>
</g>
<g>
	<g>
		<path class="st0" d="M18.45013,1762.87781v-9.375h65.4541v9.375H56.46088v77.89746H45.89349v-77.89746H18.45013z"/>
		<path class="st0" d="M322.26849,1840.77527v-87.27246h52.66992v9.375h-42.10254v29.48828h39.375v9.375h-39.375v29.65918h42.78418
			v9.375H322.26849z"/>
		<path class="st0" d="M616.02924,1840.77527v-87.27246h10.56738v77.89746h40.56836v9.375H616.02924z"/>
		<path class="st0" d="M905.52924,1840.77527v-87.27246h52.66992v9.375h-42.10254v29.48828h39.375v9.375h-39.375v29.65918h42.78418
			v9.375H905.52924z"/>
		<path class="st0" d="M1199.28992,1840.77527v-87.27246h29.48828c6.8457,0,12.4502,1.22852,16.81055,3.68555
			c4.36133,2.45801,7.59277,5.77441,9.69531,9.9502c2.10156,4.17676,3.15332,8.83594,3.15332,13.97754
			c0,5.14258-1.04395,9.81543-3.13184,14.01953c-2.08887,4.20508-5.30566,7.55078-9.65234,10.03613
			c-4.34668,2.48633-9.91504,3.72852-16.70508,3.72852h-21.13574v-9.375h20.79492c4.6875,0,8.45215-0.80957,11.29297-2.42871
			s4.90723-3.81445,6.2002-6.58398s1.93945-5.90234,1.93945-9.39648s-0.64648-6.61914-1.93945-9.375
			c-1.29297-2.75488-3.37402-4.92188-6.24316-6.49805c-2.86914-1.57715-6.67578-2.36523-11.41992-2.36523h-18.58008v77.89746
			H1199.28992z"/>
		<path class="st0" d="M1571.11804,1797.13855c0,9.20508-1.66113,17.16016-4.98535,23.86426
			c-3.32422,6.70508-7.88379,11.875-13.67871,15.51074c-5.7959,3.63672-12.41504,5.45508-19.8584,5.45508
			s-14.0625-1.81836-19.85742-5.45508c-5.7959-3.63574-10.35547-8.80566-13.67969-15.51074
			c-3.32324-6.7041-4.98535-14.65918-4.98535-23.86426c0-9.2041,1.66211-17.1582,4.98535-23.86328
			c3.32422-6.7041,7.88379-11.875,13.67969-15.51172c5.79492-3.63574,12.41406-5.4541,19.85742-5.4541
			s14.0625,1.81836,19.8584,5.4541c5.79492,3.63672,10.35449,8.80762,13.67871,15.51172
			C1569.45691,1779.98035,1571.11804,1787.93445,1571.11804,1797.13855z M1560.89148,1797.13855
			c0-7.55664-1.25781-13.93457-3.77148-19.13281c-2.51465-5.19922-5.90918-9.13379-10.18457-11.80469
			c-4.27637-2.66992-9.05566-4.00488-14.33984-4.00488s-10.06445,1.33496-14.33887,4.00488
			c-4.27637,2.6709-7.6709,6.60547-10.18555,11.80469c-2.51367,5.19824-3.77051,11.57617-3.77051,19.13281
			c0,7.55762,1.25684,13.93457,3.77051,19.13379c2.51465,5.19922,5.90918,9.13379,10.18555,11.80371
			c4.27441,2.6709,9.05469,4.00586,14.33887,4.00586s10.06348-1.33496,14.33984-4.00586
			c4.27539-2.66992,7.66992-6.60449,10.18457-11.80371C1559.63367,1811.07312,1560.89148,1804.69617,1560.89148,1797.13855z"/>
		<path class="st0" d="M1810.8446,1840.77527v-87.27246h29.48828c6.81836,0,12.41504,1.15723,16.79004,3.47266
			c4.37402,2.31543,7.61328,5.49023,9.71582,9.52441c2.10156,4.03418,3.15332,8.62207,3.15332,13.76367
			c0,5.14258-1.05176,9.70215-3.15332,13.67969c-2.10254,3.97754-5.32715,7.09473-9.67285,9.35352
			c-4.34668,2.25879-9.90137,3.3877-16.66211,3.3877h-23.86426v-9.5459h23.52344c4.6582,0,8.41602-0.68164,11.27051-2.04492
			c2.85547-1.36426,4.92871-3.30273,6.22168-5.81738c1.29297-2.51367,1.93945-5.51758,1.93945-9.0127
			c0-3.49414-0.6543-6.54785-1.95996-9.16113c-1.30762-2.61426-3.39551-4.6377-6.26465-6.07324
			c-2.87012-1.43359-6.66211-2.15137-11.37793-2.15137h-18.5791v77.89746H1810.8446z M1851.92371,1801.57117l21.47754,39.2041
			h-12.27246l-21.13672-39.2041H1851.92371z"/>
		<path class="st0" d="M2104.77539,1762.87781v-9.375h65.4541v9.375h-27.44336v77.89746h-10.56836v-77.89746H2104.77539z"/>
	</g>
	<path class="st0" d="M888.52307,1176.66992c108.96753,0,217.04712,0,325.85828,0c0,24.69849,0,48.92615,0,73.95837
		c-77.93542,0-155.49158,0-234.10437,0c0,38.88062,0,76.99097,0,116.39832c66.17542,0,132.9657,0,200.64087,0
		c0,26.42407,0,51.57959,0,78.03943c-66.67761,0-133.46753,0-200.97235,0c0,43.09265,0,84.89526,0,127.50134
		c77.95624,0,155.51239,0,234.11737,0c0,24.99341,0,49.23206,0,74.44922c-107.83301,0-216.24121,0-325.53979,0
		C888.52307,1490.8363,888.52307,1334.328,888.52307,1176.66992z"/>
	<path class="st0" d="M1309.47192,1176.66663c31.2196,0,60.66797,0,90.12866,0c2.69263,5.17175,1.37988,10.31775,1.38428,15.23108
		c0.09338,102.66614-0.45337,205.33618,0.31641,307.99658c0.328,43.74719,33.50623,82.59436,81.57654,81.34692
		c16.70508-0.43347,33.14929,1.24463,50.10278-4.48145c32.36609-10.93188,46.81396-34.43494,54.09998-65.20056
		c3.22559-13.62061,2.66431-27.33728,2.66992-41.07397c0.03845-92.49207,0.0199-184.98413,0.01978-277.4762
		c0-5.03369,0-10.06726,0-15.94995c29.5188,0,58.37207,0,87.50146,0c2.63196,4.62659,1.22717,9.79199,1.23206,14.69067
		c0.10046,98.50391,0.22742,197.0083,0.01807,295.51196c-0.12598,59.32019-23.28784,107.93237-72.09277,141.92444
		c-22.8916,15.94373-49.91138,23.76367-78.20569,27.49304c-28.98792,3.8208-57.34021,2.64966-85.72925-3.15051
		c-49.88586-10.19238-87.80713-37.09998-112.90515-81.55359c-14.62524-25.90405-20.02185-54.21082-20.06372-83.59888
		c-0.14038-98.50378-0.05322-197.00793-0.05334-295.51196C1309.47192,1187.84839,1309.47192,1182.83264,1309.47192,1176.66663z"/>
	<path class="st0" d="M524.25867,1646.89331c0-156.94189,0-312.79431,0-469.67273c29.93359,0,59.7207,0,90.80542,0
		c0,131.03101,0,262.57056,0,395.39758c67.13361,0,133.00006,0,199.63519,0c0,25.50964,0,49.73853,0,74.27515
		C717.74542,1646.89331,621.04187,1646.89331,524.25867,1646.89331z"/>
	<path class="st0" d="M2053.92773,1176.89368c35.10352,0,69.55762,0,106.09497,0
		c-59.55249,74.14343-117.94751,146.84521-176.13464,219.28833c62.23779,83.92517,123.89172,167.06323,186.53137,251.53003
		c-36.08667,0-69.75073,0-104.18335,0c-60.19751-83.36365-120.69092-167.13721-181.78955-251.74878
		C1940.48096,1323.53381,1996.99475,1250.48486,2053.92773,1176.89368z"/>
	<path class="st0" d="M1792.8501,1647.25928c0-157.43774,0-313.52966,0-470.34253c29.31677,0,58.15308,0,87.65869,0
		c0,156.78333,0,313.20081,0,470.34253C1851.36865,1647.25928,1822.53247,1647.25928,1792.8501,1647.25928z"/>
	<rect x="18.52792" y="1571.8064" class="st0" width="335.99045" height="75.08701"/>
	<path class="st0" d="M37.85495,1177.93396c-36.34719,87.83215-18.83541,192.69971,52.56405,264.09937
		c71.39947,71.39941,176.26706,88.91138,264.09937,52.56409L37.85495,1177.93396z"/>
	<polygon class="st0" points="354.5274,1273.12659 316.38776,1273.12659 316.38776,1215.33948 258.59967,1215.33948 
		258.59967,1177.19885 354.5274,1177.19885 	"/>
</g>
<g>
	
		<text transform="matrix(1 0 0 1 -2692.61475 2898.24634)" class="st0" style="font-family:'Inter-Regular'; font-size:120px; letter-spacing:136;">DATA CENTRE</text>
	<g>
		<path class="st0" d="M-1810.64136,2235.42212c108.96753,0,217.04712,0,325.85828,0c0,24.69849,0,48.92603,0,73.95825
			c-77.9353,0-155.49146,0-234.10437,0c0,38.88062,0,76.99097,0,116.39844c66.17542,0,132.9657,0,200.64087,0
			c0,26.42407,0,51.57959,0,78.03931c-66.67749,0-133.46753,0-200.97229,0c0,43.09253,0,84.89526,0,127.50146
			c77.95618,0,155.51245,0,234.11731,0c0,24.99316,0,49.23193,0,74.44897c-107.83289,0-216.24121,0-325.53979,0
			C-1810.64136,2549.58838-1810.64136,2393.08008-1810.64136,2235.42212z"/>
		<path class="st0" d="M-1389.6925,2235.4187c31.2196,0,60.66797,0,90.12866,0c2.69275,5.17188,1.37988,10.31787,1.3844,15.23096
			c0.09326,102.66626-0.45337,205.33643,0.31628,307.99683c0.32812,43.74707,33.50635,82.59424,81.57666,81.34668
			c16.70508-0.43335,33.14917,1.24487,50.10266-4.48145c32.36609-10.93164,46.81396-34.43481,54.09998-65.20044
			c3.22571-13.62061,2.66431-27.33716,2.67004-41.07397c0.03845-92.49219,0.01978-184.98413,0.01965-277.47632
			c0-5.03345,0-10.06714,0-15.94995c29.5188,0,58.37219,0,87.50153,0c2.6319,4.62671,1.22711,9.79199,1.23199,14.69067
			c0.10046,98.50415,0.22748,197.00854,0.01813,295.51196c-0.12604,59.32031-23.2879,107.93262-72.09283,141.92456
			c-22.8916,15.9436-49.91138,23.76367-78.20569,27.49316c-28.98779,3.82056-57.34009,2.64966-85.72913-3.15063
			c-49.88599-10.19238-87.80713-37.1001-112.90527-81.55347c-14.62512-25.90405-20.02185-54.21094-20.06372-83.59912
			c-0.14026-98.50366-0.05322-197.00781-0.05334-295.51172C-1389.6925,2246.60059-1389.6925,2241.58472-1389.6925,2235.4187z"/>
		<path class="st0" d="M-2174.90576,2705.64551c0-156.94214,0-312.79443,0-469.67285c29.93359,0,59.7207,0,90.80542,0
			c0,131.03101,0,262.57056,0,395.39746c67.13367,0,133.00012,0,199.63525,0c0,25.50977,0,49.73853,0,74.27539
			C-1981.41895,2705.64551-2078.12256,2705.64551-2174.90576,2705.64551z"/>
		<path class="st0" d="M-645.23663,2235.64575c35.10345,0,69.5575,0,106.09503,0
			c-59.55267,74.14331-117.94757,146.84521-176.13477,219.28833c62.23779,83.92529,123.89185,167.06323,186.53143,251.53003
			c-36.08661,0-69.75061,0-104.18335,0c-60.19751-83.36353-120.69092-167.13721-181.78955-251.74878
			C-758.68341,2382.28589-702.16968,2309.23682-645.23663,2235.64575z"/>
		<path class="st0" d="M-906.31433,2706.01123c0-157.43774,0-313.52954,0-470.34229c29.31677,0,58.15308,0,87.65875,0
			c0,156.7832,0,313.20068,0,470.34229C-847.79572,2706.01123-876.63196,2706.01123-906.31433,2706.01123z"/>
		<rect x="-2680.63647" y="2630.55835" class="st0" width="335.99045" height="75.08701"/>
		<path class="st0" d="M-2661.30933,2236.68604c-36.34741,87.83228-18.83545,192.69971,52.56396,264.09937
			c71.39941,71.39941,176.26709,88.91138,264.09937,52.56421L-2661.30933,2236.68604z"/>
		<polygon class="st0" points="-2344.63696,2331.87866 -2382.77661,2331.87866 -2382.77661,2274.09155 -2440.5647,2274.09155 
			-2440.5647,2235.95093 -2344.63696,2235.95093 		"/>
	</g>
</g>
<g>
	<g>
		<path class="st0" d="M14.6288,2879.43896h-26.93164v-87.27246h28.125c8.46582,0,15.70996,1.74023,21.7334,5.21973
			c6.02148,3.48047,10.63867,8.4668,13.84863,14.95801s4.81543,14.25391,4.81543,23.28809
			c0,9.09082-1.61914,16.91113-4.85742,23.45898c-3.23926,6.54785-7.95508,11.57617-14.14844,15.08496
			S23.49306,2879.43896,14.6288,2879.43896z M-1.73546,2870.06396h15.68262c7.21582,0,13.19531-1.3916,17.94043-4.17578
			c4.74414-2.78418,8.28125-6.74707,10.61035-11.88965c2.3291-5.1416,3.49512-11.26367,3.49512-18.36621
			c0-7.04492-1.15137-13.11816-3.45215-18.21777c-2.30176-5.09863-5.73926-9.01953-10.3125-11.76074
			c-4.5752-2.74121-10.27051-4.1123-17.08887-4.1123h-16.875V2870.06396z"/>
		<path class="st0" d="M209.51649,2879.43896h-11.08008l32.04492-87.27246h10.91016l32.04494,87.27246h-11.08008l-26.07912-73.46582
			h-0.68262L209.51649,2879.43896z M213.60634,2845.34814h44.66017v9.375h-44.66017V2845.34814z"/>
		<path class="st0" d="M408.15323,2801.5415v-9.375h65.45508v9.375h-27.44336v77.89746h-10.56836v-77.89746H408.15323z"/>
		<path class="st0" d="M619.40417,2879.43896h-11.0791L640.37,2792.1665h10.90918l32.0459,87.27246H672.245l-26.08008-73.46582
			h-0.68164L619.40417,2879.43896z M623.495,2845.34814h44.65918v9.375H623.495V2845.34814z"/>
		<path class="st0" d="M1073.09753,2819.43896h-10.56836c-0.625-3.03906-1.71191-5.70996-3.25977-8.01172
			c-1.54883-2.30078-3.42383-4.23926-5.625-5.81641c-2.20215-1.57715-4.6377-2.7627-7.30762-3.55859
			c-2.67188-0.79492-5.45508-1.19238-8.35352-1.19238c-5.2832,0-10.06348,1.33496-14.33887,4.00488
			c-4.27637,2.6709-7.6709,6.60547-10.18457,11.80469c-2.51367,5.19824-3.77148,11.57617-3.77148,19.13281
			c0,7.55762,1.25781,13.93457,3.77148,19.13379s5.9082,9.13379,10.18457,11.80371c4.27539,2.6709,9.05566,4.00586,14.33887,4.00586
			c2.89844,0,5.68164-0.39746,8.35352-1.19336c2.66992-0.79492,5.10547-1.98145,7.30762-3.55762
			c2.20117-1.57715,4.07617-3.52246,5.625-5.83789c1.54785-2.31543,2.63477-4.97852,3.25977-7.99023h10.56836
			c-0.7959,4.45996-2.24512,8.45215-4.34668,11.97461c-2.10254,3.52246-4.71582,6.5127-7.84082,8.96973
			c-3.12598,2.45801-6.62598,4.3252-10.50488,5.60352c-3.87695,1.27832-8.01758,1.91797-12.42188,1.91797
			c-7.44336,0-14.0625-1.81836-19.85742-5.45508c-5.79492-3.63574-10.35547-8.80566-13.67871-15.51074
			c-3.32422-6.7041-4.98535-14.65918-4.98535-23.86426c0-9.2041,1.66113-17.1582,4.98535-23.86328
			c3.32324-6.7041,7.88379-11.875,13.67871-15.51172c5.79492-3.63574,12.41406-5.4541,19.85742-5.4541
			c4.4043,0,8.54492,0.63867,12.42188,1.91797c3.87891,1.27832,7.37891,3.14648,10.50488,5.60352
			c3.125,2.45703,5.73828,5.44043,7.84082,8.94824C1070.85242,2810.95264,1072.30164,2814.95068,1073.09753,2819.43896z"/>
		<path class="st0" d="M1226.22253,2879.43896v-87.27246h52.6709v9.375h-42.10352v29.48828h39.375v9.375h-39.375v29.65918h42.78516
			v9.375H1226.22253z"/>
		<path class="st0" d="M1503.26648,2792.1665v87.27246h-10.22656l-47.55664-68.52246h-0.85156v68.52246h-10.56836v-87.27246
			h10.22656l47.72656,68.69336h0.85352v-68.69336H1503.26648z"/>
		<path class="st0" d="M1655.71179,2801.5415v-9.375h65.45312v9.375h-27.44336v77.89746h-10.56836v-77.89746H1655.71179z"/>
		<path class="st0" d="M1873.60828,2879.43896v-87.27246h29.48828c6.81836,0,12.41602,1.15723,16.79102,3.47266
			c4.37305,2.31543,7.61328,5.49023,9.71484,9.52441s3.1543,8.62207,3.1543,13.76367c0,5.14258-1.05273,9.70215-3.1543,13.67969
			s-5.32617,7.09473-9.67188,9.35352c-4.34766,2.25879-9.90234,3.3877-16.66211,3.3877h-23.86523v-9.5459h23.52344
			c4.6582,0,8.41602-0.68164,11.27148-2.04492c2.85547-1.36426,4.92773-3.30273,6.2207-5.81738
			c1.29297-2.51367,1.93945-5.51758,1.93945-9.0127c0-3.49414-0.6543-6.54785-1.95898-9.16113
			c-1.30859-2.61426-3.39648-4.6377-6.26562-6.07324c-2.86914-1.43359-6.66211-2.15137-11.37695-2.15137h-18.58008v77.89746
			H1873.60828z M1914.68835,2840.23486l21.47656,39.2041h-12.27148l-21.13672-39.2041H1914.68835z"/>
		<path class="st0" d="M2086.3916,2879.43896v-87.27246h52.66992v9.375h-42.10156v29.48828h39.375v9.375h-39.375v29.65918h42.78516
			v9.375H2086.3916z"/>
	</g>
	<path class="st0" d="M859.10211,2216.61499c108.96753,0,217.04718,0,325.85822,0c0,24.69849,0,48.92603,0,73.95825
		c-77.9353,0-155.49146,0-234.10431,0c0,38.88062,0,76.99097,0,116.39844c66.17542,0,132.96576,0,200.64093,0
		c0,26.42407,0,51.57959,0,78.03931c-66.67761,0-133.46759,0-200.97241,0c0,43.09277,0,84.89526,0,127.50146
		c77.95618,0,155.51245,0,234.11743,0c0,24.99316,0,49.23193,0,74.44897c-107.83301,0-216.24127,0-325.53986,0
		C859.10211,2530.78125,859.10211,2374.27295,859.10211,2216.61499z"/>
	<path class="st0" d="M1280.05103,2216.61157c31.2196,0,60.66797,0,90.12866,0c2.69263,5.17188,1.37976,10.31787,1.38428,15.2312
		c0.09338,102.66602-0.45337,205.33618,0.31628,307.99658c0.32812,43.74707,33.50635,82.59424,81.57666,81.34692
		c16.70508-0.43359,33.14929,1.24463,50.10266-4.48145c32.36609-10.93188,46.81409-34.43506,54.1001-65.20068
		c3.22559-13.62061,2.66431-27.33716,2.66992-41.07397c0.03845-92.49219,0.01978-184.98413,0.01978-277.47632
		c0-5.03345,0-10.06714,0-15.94971c29.51868,0,58.37207,0,87.50146,0c2.63184,4.62646,1.22705,9.79175,1.23193,14.69067
		c0.10046,98.50391,0.22754,197.0083,0.01819,295.51196c-0.12598,59.32007-23.28784,107.93237-72.09277,141.92432
		c-22.8916,15.9436-49.91138,23.76367-78.20581,27.49316c-28.98779,3.8208-57.34009,2.64966-85.72913-3.15063
		c-49.88586-10.19238-87.80713-37.1001-112.90527-81.55347c-14.62512-25.90405-20.02185-54.21094-20.0636-83.59888
		c-0.14038-98.50391-0.05334-197.00806-0.05334-295.51196C1280.05103,2227.79346,1280.05103,2222.77759,1280.05103,2216.61157z"/>
	<path class="st0" d="M494.83774,2686.83838c0-156.94189,0-312.79443,0-469.67285c29.93356,0,59.72073,0,90.80539,0
		c0,131.03101,0,262.57056,0,395.39771c67.13367,0,133.00006,0,199.63519,0c0,25.50952,0,49.73853,0,74.27515
		C688.32446,2686.83838,591.62097,2686.83838,494.83774,2686.83838z"/>
	<path class="st0" d="M2024.50684,2216.83862c35.10352,0,69.55762,0,106.09497,0
		c-59.55273,74.14355-117.94751,146.84521-176.13477,219.28833c62.23779,83.92529,123.89185,167.06323,186.53149,251.53003
		c-36.08667,0-69.75073,0-104.18335,0c-60.19751-83.36353-120.69092-167.13721-181.78955-251.74878
		C1911.06006,2363.47876,1967.57373,2290.42993,2024.50684,2216.83862z"/>
	<path class="st0" d="M1763.42908,2687.2041c0-157.4375,0-313.52954,0-470.34229c29.31677,0,58.15308,0,87.65881,0
		c0,156.7832,0,313.20068,0,470.34229C1821.94775,2687.2041,1793.11157,2687.2041,1763.42908,2687.2041z"/>
	<rect x="-10.89302" y="2611.75122" class="st0" width="335.99045" height="75.08701"/>
	<path class="st0" d="M8.43401,2217.87891c-36.34719,87.83228-18.83541,192.69971,52.56405,264.09937
		c71.39946,71.39941,176.26704,88.91138,264.09937,52.56421L8.43401,2217.87891z"/>
	<polygon class="st0" points="325.10648,2313.07153 286.96683,2313.07153 286.96683,2255.28442 229.17874,2255.28442 
		229.17874,2217.1438 325.10648,2217.1438 	"/>
</g>
<g>
	<path class="st0" d="M908.52313,43.66504c108.96753,0,217.04706,0,325.85822,0c0,24.69849,0,48.92608,0,73.95834
		c-77.9353,0-155.49146,0-234.10437,0c0,38.88063,0,76.99097,0,116.39836c66.17542,0,132.9657,0,200.64087,0
		c0,26.42409,0,51.57961,0,78.03941c-66.67749,0-133.46753,0-200.97229,0c0,43.09262,0,84.89523,0,127.50134
		c77.95618,0,155.51245,0,234.11731,0c0,24.99335,0,49.23209,0,74.44916c-107.83289,0-216.24115,0-325.53973,0
		C908.52313,357.83142,908.52313,201.32315,908.52313,43.66504z"/>
	<path class="st0" d="M1329.47192,43.66175c31.2196,0,60.66797,0,90.12866,0c2.69275,5.17175,1.37988,10.31779,1.3844,15.23104
		c0.09326,102.66611-0.45337,205.33624,0.31628,307.99664c0.32812,43.74719,33.50635,82.59427,81.57666,81.34686
		c16.70508-0.43344,33.14917,1.24469,50.10266-4.48145c32.36609-10.93182,46.81396-34.43497,54.09998-65.20059
		c3.22571-13.62061,2.66431-27.33719,2.67004-41.07397c0.03845-92.49208,0.01978-184.98413,0.01965-277.4762
		c0-5.03359,0-10.06717,0-15.9499c29.5188,0,58.37219,0,87.50146,0c2.63196,4.62658,1.22717,9.79195,1.23206,14.69064
		c0.10046,98.50397,0.22754,197.00835,0.01819,295.51199c-0.1261,59.32022-23.28796,107.93243-72.0929,141.92447
		c-22.8916,15.94366-49.91138,23.76367-78.20569,27.49304c-28.98779,3.82074-57.34009,2.64966-85.72913-3.15057
		c-49.88599-10.19232-87.80713-37.09998-112.90527-81.55353c-14.62512-25.90405-20.02185-54.21085-20.06372-83.59891
		c-0.14026-98.50378-0.05322-197.00792-0.05334-295.51193C1329.47192,54.84355,1329.47192,49.82772,1329.47192,43.66175z"/>
	<path class="st0" d="M544.25873,513.88849c0-156.94199,0-312.79437,0-469.67285c29.93359,0,59.7207,0,90.80542,0
		c0,131.03098,0,262.57056,0,395.39761c67.13361,0,133.00006,0,199.63519,0c0,25.50961,0,49.73853,0,74.27524
		C737.74548,513.88849,641.04193,513.88849,544.25873,513.88849z"/>
	<path class="st0" d="M2073.92773,43.88877c35.10352,0,69.55762,0,106.09497,0
		c-59.55249,74.14342-117.94751,146.84518-176.13464,219.28839c62.23767,83.92514,123.89197,167.06323,186.53137,251.53006
		c-36.08667,0-69.75049,0-104.18335,0c-60.19739-83.36371-120.69092-167.13724-181.78955-251.74878
		C1960.48108,190.52896,2016.99475,117.47997,2073.92773,43.88877z"/>
	<path class="st0" d="M1812.8501,514.25433c0-157.43768,0-313.52957,0-470.34247c29.31677,0,58.15308,0,87.65869,0
		c0,156.78329,0,313.20074,0,470.34247C1871.36877,514.25433,1842.53247,514.25433,1812.8501,514.25433z"/>
	<rect x="38.52796" y="438.80145" class="st0" width="335.99045" height="75.08701"/>
	<path class="st0" d="M57.85499,44.92905c-36.34719,87.83219-18.83541,192.69977,52.56405,264.09933
		c71.39947,71.39941,176.26706,88.91141,264.09937,52.56415L57.85499,44.92905z"/>
	<polygon class="st0" points="374.52747,140.12172 336.38782,140.12172 336.38782,82.33462 278.59973,82.33462 278.59973,44.19399 
		374.52747,44.19399 	"/>
	<g>
		<path class="st0" d="M38.45009,629.448v-9.375h65.4541v9.375H76.46083v77.89746H65.89345V629.448H38.45009z"/>
		<path class="st0" d="M148.94814,707.34546V620.073h52.6709v9.375h-42.10352v29.48828h39.375v9.375h-39.375v29.65918h42.78516
			v9.375H148.94814z"/>
		<path class="st0" d="M249.38857,707.34546V620.073h10.56837v77.89746h40.56836v9.375H249.38857z"/>
		<path class="st0" d="M345.56924,707.34546V620.073h52.6709v9.375h-42.10352v29.48828h39.375v9.375h-39.375v29.65918h42.78516
			v9.375H345.56924z"/>
		<path class="st0" d="M446.00967,707.34546V620.073h29.48828c6.84668,0,12.45117,1.22852,16.81152,3.68555
			c4.36035,2.45801,7.59277,5.77441,9.69434,9.9502c2.10254,4.17676,3.1543,8.83594,3.1543,13.97754
			c0,5.14258-1.04492,9.81543-3.13281,14.01953c-2.08789,4.20508-5.30469,7.55078-9.65234,10.03613
			c-4.3457,2.48633-9.91406,3.72852-16.7041,3.72852h-21.13574v-9.375h20.79492c4.6875,0,8.45117-0.80957,11.29297-2.42871
			c2.83984-1.61914,4.90723-3.81445,6.2002-6.58398c1.29199-2.76953,1.93848-5.90234,1.93848-9.39648
			s-0.64648-6.61914-1.93848-9.375c-1.29297-2.75488-3.37402-4.92188-6.24316-6.49805
			c-2.86914-1.57715-6.67578-2.36523-11.41992-2.36523h-18.58008v77.89746H446.00967z"/>
		<path class="st0" d="M624.51843,663.70874c0,9.20508-1.66211,17.16016-4.98535,23.86426
			c-3.32422,6.70508-7.88379,11.875-13.67969,15.51074c-5.79492,3.63672-12.41504,5.45508-19.85742,5.45508
			c-7.44336,0-14.0625-1.81836-19.8584-5.45508c-5.7959-3.63574-10.35449-8.80566-13.67871-15.51074
			c-3.32422-6.7041-4.98633-14.65918-4.98633-23.86426c0-9.2041,1.66211-17.1582,4.98633-23.86328
			c3.32422-6.7041,7.88281-11.875,13.67871-15.51172c5.7959-3.63574,12.41504-5.4541,19.8584-5.4541
			c7.44238,0,14.0625,1.81836,19.85742,5.4541c5.7959,3.63672,10.35547,8.80762,13.67969,15.51172
			C622.85632,646.55054,624.51843,654.50464,624.51843,663.70874z M614.29089,663.70874
			c0-7.55664-1.25684-13.93457-3.77148-19.13281c-2.51367-5.19922-5.9082-9.13379-10.18359-11.80469
			c-4.27734-2.66992-9.05664-4.00488-14.33984-4.00488c-5.28418,0-10.06445,1.33496-14.33984,4.00488
			c-4.27539,2.6709-7.66992,6.60547-10.18457,11.80469c-2.51465,5.19824-3.77148,11.57617-3.77148,19.13281
			c0,7.55762,1.25684,13.93457,3.77148,19.13379s5.90918,9.13379,10.18457,11.80371
			c4.27539,2.6709,9.05566,4.00586,14.33984,4.00586c5.2832,0,10.0625-1.33496,14.33984-4.00586
			c4.27539-2.66992,7.66992-6.60449,10.18359-11.80371C613.03406,677.64331,614.29089,671.26636,614.29089,663.70874z"/>
		<path class="st0" d="M670.92371,707.34546V620.073h29.48828c6.81836,0,12.41504,1.15723,16.79102,3.47266
			c4.37402,2.31543,7.61328,5.49023,9.71484,9.52441c2.10254,4.03418,3.1543,8.62207,3.1543,13.76367
			c0,5.14258-1.05176,9.70215-3.1543,13.67969c-2.10156,3.97754-5.32617,7.09473-9.67285,9.35352s-9.90137,3.3877-16.66211,3.3877
			H676.7196v-9.5459h23.52246c4.65918,0,8.41602-0.68164,11.27148-2.04492c2.85547-1.36426,4.92871-3.30273,6.22168-5.81738
			c1.29199-2.51367,1.93848-5.51758,1.93848-9.0127c0-3.49414-0.65332-6.54785-1.95996-9.16113
			c-1.30762-2.61426-3.39551-4.6377-6.26465-6.07324c-2.86914-1.43359-6.66211-2.15137-11.37695-2.15137h-18.58008v77.89746
			H670.92371z M712.00378,668.14136l21.47656,39.2041h-12.27246l-21.13574-39.2041H712.00378z"/>
		<path class="st0" d="M771.53503,629.448v-9.375h65.4541v9.375h-27.44336v77.89746h-10.56738V629.448H771.53503z"/>
		<path class="st0" d="M967.81433,708.53882c-5.73828,0-10.68164-1.05176-14.8291-3.15332
			c-4.14746-2.10254-7.34473-4.98633-9.58789-8.65039c-2.24512-3.66504-3.36621-7.85547-3.36621-12.57129
			c0-3.63672,0.77344-6.86719,2.32227-9.69434c1.54785-2.82715,3.69238-5.45508,6.43457-7.88379
			c2.74121-2.42871,5.90137-4.86523,9.48145-7.30859l12.61328-9.375c2.47266-1.61914,4.45312-3.35156,5.94531-5.19824
			c1.49121-1.84668,2.23633-4.26172,2.23633-7.24512c0-2.21582-0.97266-4.36035-2.91797-6.43457
			c-1.94727-2.07324-4.49609-3.11035-7.65039-3.11035c-2.21484,0-4.16895,0.56152-5.85938,1.68262
			c-1.68945,1.12305-3.01074,2.54297-3.96289,4.26172c-0.95117,1.71973-1.42773,3.4873-1.42773,5.30566
			c0,2.04492,0.56152,4.1123,1.68359,6.2002s2.55664,4.21875,4.30469,6.3916c1.74609,2.17383,3.55859,4.39648,5.43359,6.66895
			l40.05664,48.9209h-12.10352l-33.06738-39.88672c-3.06836-3.69238-5.85254-7.04492-8.35254-10.05664
			c-2.5-3.01074-4.48828-5.97949-5.96582-8.90625c-1.47754-2.92578-2.21582-6.09375-2.21582-9.50293
			c0-3.91992,0.87305-7.36426,2.62109-10.33398c1.74609-2.96777,4.20312-5.2832,7.37109-6.94531s6.88281-2.49316,11.14453-2.49316
			c4.37402,0,8.13867,0.8457,11.29297,2.53516c3.15234,1.69141,5.58203,3.9209,7.28613,6.69043
			c1.7041,2.77051,2.55762,5.77441,2.55762,9.0127c0,4.17676-1.03809,7.79883-3.11133,10.86719
			c-2.07422,3.06738-4.90039,5.92285-8.48047,8.56543l-17.38672,12.9541c-3.91992,2.89746-6.57617,5.70996-7.96875,8.4375
			c-1.3916,2.72754-2.08789,4.6875-2.08789,5.88086c0,2.72754,0.70996,5.26953,2.13086,7.62793
			c1.41992,2.3584,3.42383,4.26074,6.00879,5.70996s5.61035,2.17285,9.07715,2.17285c3.29492,0,6.50488-0.70312,9.63086-2.10938
			c3.12402-1.40625,5.95801-3.44434,8.5-6.11426c2.54297-2.66992,4.56055-5.88086,6.05176-9.63086s2.2373-7.96875,2.2373-12.65625
			h9.71582c0,5.79492-0.66797,10.52539-2.00293,14.19043c-1.33594,3.66406-2.84082,6.53418-4.51758,8.60742
			c-1.67578,2.07422-3.02539,3.62207-4.04688,4.64551c-0.3418,0.42578-0.6543,0.85156-0.9375,1.27832
			c-0.28516,0.42578-0.59766,0.85156-0.9375,1.27832c-2.8125,3.15332-6.36523,5.50391-10.6543,7.05273
			C976.22351,707.7644,971.99109,708.53882,967.81433,708.53882z"/>
		<path class="st0" d="M1139.20691,707.34546h-26.93164V620.073h28.125c8.46484,0,15.70898,1.74023,21.73242,5.21973
			c6.02344,3.48047,10.63867,8.4668,13.84961,14.95801c3.20996,6.49121,4.81543,14.25391,4.81543,23.28809
			c0,9.09082-1.61914,16.91113-4.8584,23.45898c-3.23828,6.54785-7.9541,11.57617-14.14648,15.08496
			C1155.59851,705.59155,1148.07019,707.34546,1139.20691,707.34546z M1122.84363,697.97046h15.68164
			c7.21484,0,13.19531-1.3916,17.93945-4.17578s8.28125-6.74707,10.61133-11.88965c2.3291-5.1416,3.49414-11.26367,3.49414-18.36621
			c0-7.04492-1.15039-13.11816-3.45117-18.21777c-2.30078-5.09863-5.73926-9.01953-10.3125-11.76074
			c-4.57422-2.74121-10.26953-4.1123-17.08789-4.1123h-16.875V697.97046z"/>
		<path class="st0" d="M1226.69421,707.34546h-11.0791l32.04492-87.27246h10.90918l32.0459,87.27246h-11.08008l-26.08008-73.46582
			h-0.68164L1226.69421,707.34546z M1230.78503,673.25464h44.65918v9.375h-44.65918V673.25464z"/>
		<path class="st0" d="M1317.93152,629.448v-9.375h65.4541v9.375h-27.44336v77.89746h-10.56738V629.448H1317.93152z"/>
		<path class="st0" d="M1421.78308,707.34546H1410.703l32.04492-87.27246h10.90918l32.0459,87.27246h-11.08008l-26.0791-73.46582
			h-0.68164L1421.78308,707.34546z M1425.87292,673.25464h44.65918v9.375h-44.65918V673.25464z"/>
		<path class="st0" d="M1660.67664,647.34546h-10.56836c-0.62598-3.03906-1.71191-5.70996-3.25977-8.01172
			c-1.54883-2.30078-3.42383-4.23926-5.625-5.81641c-2.20215-1.57715-4.63867-2.7627-7.30859-3.55859
			c-2.6709-0.79492-5.45508-1.19238-8.35254-1.19238c-5.28418,0-10.06445,1.33496-14.33887,4.00488
			c-4.27637,2.6709-7.6709,6.60547-10.18555,11.80469c-2.51367,5.19824-3.77051,11.57617-3.77051,19.13281
			c0,7.55762,1.25684,13.93457,3.77051,19.13379c2.51465,5.19922,5.90918,9.13379,10.18555,11.80371
			c4.27441,2.6709,9.05469,4.00586,14.33887,4.00586c2.89746,0,5.68164-0.39746,8.35254-1.19336
			c2.66992-0.79492,5.10645-1.98145,7.30859-3.55762c2.20117-1.57715,4.07617-3.52246,5.625-5.83789
			c1.54785-2.31543,2.63379-4.97852,3.25977-7.99023h10.56836c-0.7959,4.45996-2.24512,8.45215-4.34668,11.97461
			c-2.10352,3.52246-4.7168,6.5127-7.84082,8.96973c-3.12598,2.45801-6.62695,4.3252-10.50488,5.60352
			s-8.01855,1.91797-12.42188,1.91797c-7.44336,0-14.0625-1.81836-19.85742-5.45508
			c-5.7959-3.63574-10.35547-8.80566-13.67969-15.51074c-3.32324-6.7041-4.98535-14.65918-4.98535-23.86426
			c0-9.2041,1.66211-17.1582,4.98535-23.86328c3.32422-6.7041,7.88379-11.875,13.67969-15.51172
			c5.79492-3.63574,12.41406-5.4541,19.85742-5.4541c4.40332,0,8.54395,0.63867,12.42188,1.91797
			c3.87793,1.27832,7.37891,3.14648,10.50488,5.60352c3.12402,2.45703,5.7373,5.44043,7.84082,8.94824
			C1658.43152,638.85913,1659.88074,642.85718,1660.67664,647.34546z"/>
		<path class="st0" d="M1706.40027,707.34546V620.073h52.66992v9.375h-42.10156v29.48828h39.375v9.375h-39.375v29.65918h42.78418
			v9.375H1706.40027z"/>
		<path class="st0" d="M1876.04578,620.073v87.27246h-10.22656L1818.2616,638.823h-0.85156v68.52246h-10.56836V620.073h10.22754
			l47.72656,68.69336h0.85254V620.073H1876.04578z"/>
		<path class="st0" d="M1921.08972,629.448v-9.375h65.4541v9.375h-27.44336v77.89746h-10.56836V629.448H1921.08972z"/>
		<path class="st0" d="M2031.58679,707.34546V620.073h29.4884c6.81836,0,12.41504,1.15723,16.79004,3.47266
			c4.37402,2.31543,7.61328,5.49023,9.71582,9.52441c2.10156,4.03418,3.15332,8.62207,3.15332,13.76367
			c0,5.14258-1.05176,9.70215-3.15332,13.67969c-2.10254,3.97754-5.32715,7.09473-9.67285,9.35352
			c-4.34668,2.25879-9.90137,3.3877-16.66211,3.3877h-23.86438v-9.5459h23.52356c4.6582,0,8.41602-0.68164,11.27051-2.04492
			c2.85547-1.36426,4.92871-3.30273,6.22168-5.81738c1.29297-2.51367,1.93945-5.51758,1.93945-9.0127
			c0-3.49414-0.6543-6.54785-1.95996-9.16113c-1.30762-2.61426-3.39551-4.6377-6.26465-6.07324
			c-2.87012-1.43359-6.66211-2.15137-11.37793-2.15137h-18.57922v77.89746H2031.58679z M2072.66602,668.14136l21.47754,39.2041
			h-12.27246l-21.13672-39.2041H2072.66602z"/>
		<path class="st0" d="M2136.96973,707.34546V620.073h52.66992v9.375h-42.10156v29.48828h39.375v9.375h-39.375v29.65918h42.78418
			v9.375H2136.96973z"/>
	</g>
</g>
</svg>
